# xmcd CD database file
#
# Track frame offsets:
#	150
#	11803
#	27133
#	44051
#	63541
#	76076
#	92003
#	105098
#	120841
#	133484
#	147675
#	169453
#
# Disc length: 2636 seconds
#
# Revision: 2
# Processed by: cddbd v1.4b41PL1 Copyright (c) Steve Scherf et al.
# Submitted via: Feurio! 1.50.2ß - http://www.feurio.com
#
DISCID=a30a4a0c
DTITLE=Static-X - Wisconsin Death Trip
DYEAR=1900
DGENRE=
TTITLE0=Push It
TTITLE1=I'm with Stupid
TTITLE2=Bled for Days
TTITLE3=Love Dump
TTITLE4=I Am
TTITLE5=Otsegolation
TTITLE6=Stem
TTITLE7=Sweat of the Bud
TTITLE8=Fix
TTITLE9=Wisconsin Death Trip
TTITLE10=The Trance is the Motion
TTITLE11=December
EXTD=
EXTT0=
EXTT1=
EXTT2=
EXTT3=
EXTT4=
EXTT5=
EXTT6=
EXTT7=
EXTT8=
EXTT9=
EXTT10=
EXTT11=
PLAYORDER=
